<svg width="140" height="141" viewBox="0 0 140 141" fill="none" xmlns="http://www.w3.org/2000/svg">
<g filter="url(#filter0_d_209_2076)">
<circle cx="56.9971" cy="66.2391" r="30" fill="white" fill-opacity="0.5" shape-rendering="crispEdges"/>
</g>
<g clip-path="url(#clip0_209_2076)">
<path d="M38.7129 47.9523H76.458V84.526H38.7129V47.9523Z" fill="#2E001E"/>
<path d="M36.9971 46.243V86.2348H78.1735V46.243H36.9971ZM38.7128 47.952H76.4579V84.5257H38.7128V47.952Z" fill="#FF2BC2"/>
<path d="M66.9013 63.0432C66.644 62.9236 66.318 62.8723 65.9062 62.8723C63.7445 62.8723 62.3033 64.5301 62.3033 67.2816C62.3033 70.4263 63.7788 71.691 65.7004 71.691C66.1121 71.691 66.5582 71.6397 66.8842 71.503V63.0432H66.9013ZM59.2151 67.4184C59.2151 63.4363 61.7886 60.3258 66.0092 60.3258C66.3694 60.3258 66.5582 60.3258 66.9013 60.36V55.9164C66.9013 55.8139 66.9871 55.7455 67.0729 55.7455H69.8352C69.9725 55.7455 70.0068 55.7968 70.0068 55.8823V71.503C70.0068 71.9644 70.0068 72.5455 70.0925 73.1779C70.0925 73.2975 70.0925 73.3146 69.9896 73.3659C68.5485 74.0495 67.0387 74.3571 65.5975 74.3571C61.8744 74.3571 59.2151 72.067 59.2151 67.4184ZM53.3646 64.6497L58.1685 73.9299C58.2543 74.0666 58.2028 74.2033 58.0656 74.2033H55.0803C54.8915 74.2033 54.8058 74.152 54.72 73.9811C53.6219 71.7252 52.5067 69.3838 51.3572 66.9569H51.3229C50.2935 69.247 49.1611 71.7423 48.0631 73.9983C47.9773 74.1349 47.8915 74.1863 47.7543 74.1863H44.9062C44.7347 74.1863 44.7175 74.0496 44.8033 73.947L49.5043 64.9403L44.9577 55.9848C44.8548 55.8481 44.9577 55.7285 45.0778 55.7285H48.0288C48.2004 55.7285 48.2861 55.7626 48.3376 55.9164C49.4185 58.1895 50.5165 60.4283 51.546 62.7185H51.5803C52.5754 60.4625 53.6734 58.1895 54.72 55.9506C54.8058 55.8139 54.8572 55.7285 55.0288 55.7285H57.7911C57.9283 55.7285 57.9798 55.831 57.894 55.9848L53.3646 64.6497Z" fill="#FF2BC2"/>
</g>
<rect x="0.99707" y="90.2391" width="112" height="32" rx="5" fill="#E3A0D6"/>
<path d="M20.9772 112.239H19.4999L23.7726 100.603H25.2272L29.4999 112.239H28.0226L24.5454 102.444H24.4545L20.9772 112.239ZM21.5226 107.694H27.4772V108.944H21.5226V107.694ZM34.426 112.421C33.6988 112.421 33.0567 112.237 32.4999 111.87C31.9431 111.499 31.5075 110.976 31.1931 110.302C30.8787 109.624 30.7215 108.822 30.7215 107.898C30.7215 106.982 30.8787 106.186 31.1931 105.512C31.5075 104.838 31.945 104.317 32.5056 103.949C33.0662 103.582 33.7139 103.398 34.4488 103.398C35.017 103.398 35.4658 103.493 35.7954 103.682C36.1287 103.868 36.3825 104.08 36.5567 104.319C36.7348 104.553 36.873 104.747 36.9715 104.898H37.0851V100.603H38.426V112.239H37.1306V110.898H36.9715C36.873 111.057 36.7329 111.258 36.551 111.5C36.3692 111.739 36.1098 111.953 35.7726 112.143C35.4355 112.328 34.9867 112.421 34.426 112.421ZM34.6079 111.216C35.1457 111.216 35.6003 111.076 35.9715 110.796C36.3427 110.512 36.6249 110.12 36.8181 109.62C37.0113 109.116 37.1079 108.535 37.1079 107.875C37.1079 107.224 37.0132 106.654 36.8238 106.165C36.6344 105.673 36.3541 105.29 35.9829 105.018C35.6117 104.741 35.1533 104.603 34.6079 104.603C34.0397 104.603 33.5662 104.749 33.1874 105.04C32.8124 105.328 32.5302 105.72 32.3408 106.216C32.1552 106.709 32.0624 107.262 32.0624 107.875C32.0624 108.497 32.1571 109.061 32.3465 109.569C32.5397 110.072 32.8238 110.474 33.1988 110.773C33.5776 111.069 34.0473 111.216 34.6079 111.216ZM44.6135 112.421C43.8257 112.421 43.1344 112.233 42.5397 111.858C41.9488 111.483 41.4867 110.959 41.1533 110.285C40.8238 109.61 40.659 108.822 40.659 107.921C40.659 107.012 40.8238 106.218 41.1533 105.54C41.4867 104.862 41.9488 104.336 42.5397 103.961C43.1344 103.586 43.8257 103.398 44.6135 103.398C45.4014 103.398 46.0908 103.586 46.6817 103.961C47.2764 104.336 47.7385 104.862 48.0681 105.54C48.4014 106.218 48.5681 107.012 48.5681 107.921C48.5681 108.822 48.4014 109.61 48.0681 110.285C47.7385 110.959 47.2764 111.483 46.6817 111.858C46.0908 112.233 45.4014 112.421 44.6135 112.421ZM44.6135 111.216C45.212 111.216 45.7045 111.063 46.0908 110.756C46.4772 110.449 46.7632 110.046 46.9488 109.546C47.1344 109.046 47.2272 108.504 47.2272 107.921C47.2272 107.338 47.1344 106.794 46.9488 106.29C46.7632 105.786 46.4772 105.379 46.0908 105.069C45.7045 104.758 45.212 104.603 44.6135 104.603C44.0151 104.603 43.5226 104.758 43.1363 105.069C42.7499 105.379 42.4639 105.786 42.2783 106.29C42.0927 106.794 41.9999 107.338 41.9999 107.921C41.9999 108.504 42.0927 109.046 42.2783 109.546C42.4639 110.046 42.7499 110.449 43.1363 110.756C43.5226 111.063 44.0151 111.216 44.6135 111.216ZM50.7968 112.239V100.603H52.1377V104.898H52.2513C52.3498 104.747 52.4862 104.553 52.6604 104.319C52.8385 104.08 53.0922 103.868 53.4218 103.682C53.7551 103.493 54.2059 103.398 54.7741 103.398C55.5089 103.398 56.1566 103.582 56.7172 103.949C57.2778 104.317 57.7153 104.838 58.0297 105.512C58.3441 106.186 58.5013 106.982 58.5013 107.898C58.5013 108.822 58.3441 109.624 58.0297 110.302C57.7153 110.976 57.2797 111.499 56.7229 111.87C56.1661 112.237 55.5241 112.421 54.7968 112.421C54.2362 112.421 53.7873 112.328 53.4502 112.143C53.1131 111.953 52.8536 111.739 52.6718 111.5C52.49 111.258 52.3498 111.057 52.2513 110.898H52.0922V112.239H50.7968ZM52.115 107.875C52.115 108.535 52.2116 109.116 52.4047 109.62C52.5979 110.12 52.8801 110.512 53.2513 110.796C53.6225 111.076 54.0771 111.216 54.615 111.216C55.1756 111.216 55.6434 111.069 56.0184 110.773C56.3972 110.474 56.6813 110.072 56.8707 109.569C57.0638 109.061 57.1604 108.497 57.1604 107.875C57.1604 107.262 57.0657 106.709 56.8763 106.216C56.6907 105.72 56.4085 105.328 56.0297 105.04C55.6547 104.749 55.1831 104.603 54.615 104.603C54.0695 104.603 53.6112 104.741 53.24 105.018C52.8688 105.29 52.5885 105.673 52.3991 106.165C52.2097 106.654 52.115 107.224 52.115 107.875ZM64.2116 112.421C63.3706 112.421 62.6453 112.235 62.0354 111.864C61.4294 111.489 60.9616 110.966 60.632 110.296C60.3063 109.622 60.1434 108.838 60.1434 107.944C60.1434 107.05 60.3063 106.262 60.632 105.58C60.9616 104.894 61.4199 104.36 62.007 103.978C62.5979 103.591 63.2873 103.398 64.0752 103.398C64.5297 103.398 64.9786 103.474 65.4218 103.625C65.865 103.777 66.2684 104.023 66.632 104.364C66.9957 104.701 67.2854 105.148 67.5013 105.705C67.7172 106.262 67.8252 106.947 67.8252 107.762V108.33H61.0979V107.171H66.4616C66.4616 106.678 66.3631 106.239 66.1661 105.853C65.9729 105.466 65.6964 105.161 65.3366 104.938C64.9805 104.714 64.56 104.603 64.0752 104.603C63.5411 104.603 63.079 104.735 62.6888 105C62.3025 105.262 62.0051 105.603 61.7968 106.023C61.5885 106.444 61.4843 106.894 61.4843 107.375V108.148C61.4843 108.807 61.5979 109.366 61.8252 109.824C62.0563 110.279 62.3763 110.625 62.7854 110.864C63.1945 111.099 63.6699 111.216 64.2116 111.216C64.5638 111.216 64.882 111.167 65.1661 111.069C65.454 110.966 65.7021 110.815 65.9104 110.614C66.1188 110.41 66.2797 110.156 66.3934 109.853L67.6888 110.216C67.5525 110.656 67.3233 111.042 67.0013 111.375C66.6794 111.705 66.2816 111.963 65.8081 112.148C65.3347 112.33 64.8025 112.421 64.2116 112.421ZM75.2286 100.603L78.2286 105.444H78.3195L81.3195 100.603H82.9786L79.3195 106.421L82.9786 112.239H81.3195L78.3195 107.489H78.2286L75.2286 112.239H73.5695L77.3195 106.421L73.5695 100.603H75.2286ZM88.4033 112.239H84.8124V100.603L88.5624 100.603C89.6912 100.603 90.6571 100.836 91.4601 101.302C92.2632 101.764 92.8787 102.428 93.3067 103.296C93.7348 104.16 93.9488 105.194 93.9488 106.398C93.9488 107.61 93.7329 108.654 93.301 109.529C92.8692 110.4 92.2404 111.071 91.4147 111.54C90.5889 112.006 89.5851 112.239 88.4033 112.239ZM86.2215 110.989H88.3124C89.2745 110.989 90.0719 110.803 90.7045 110.432C91.337 110.061 91.8086 109.533 92.1192 108.847C92.4298 108.161 92.5851 107.345 92.5851 106.398C92.5851 105.459 92.4317 104.65 92.1249 103.972C91.8181 103.29 91.3598 102.768 90.7499 102.404C90.1401 102.036 89.3806 101.853 88.4715 101.853L86.2215 101.853V110.989Z" fill="white"/>
<defs>
<filter id="filter0_d_209_2076" x="-0.00292969" y="0.239105" width="140" height="140" filterUnits="userSpaceOnUse" color-interpolation-filters="sRGB">
<feFlood flood-opacity="0" result="BackgroundImageFix"/>
<feColorMatrix in="SourceAlpha" type="matrix" values="0 0 0 0 0 0 0 0 0 0 0 0 0 0 0 0 0 0 127 0" result="hardAlpha"/>
<feOffset dx="13" dy="4"/>
<feGaussianBlur stdDeviation="20"/>
<feComposite in2="hardAlpha" operator="out"/>
<feColorMatrix type="matrix" values="0 0 0 0 0.0431373 0 0 0 0 0.0784314 0 0 0 0 0.105882 0 0 0 0.1 0"/>
<feBlend mode="normal" in2="BackgroundImageFix" result="effect1_dropShadow_209_2076"/>
<feBlend mode="normal" in="SourceGraphic" in2="effect1_dropShadow_209_2076" result="shape"/>
</filter>
<clipPath id="clip0_209_2076">
<rect width="41.1765" height="40" fill="white" transform="translate(36.9971 46.2391)"/>
</clipPath>
</defs>
</svg>
