<svg width="141" height="141" viewBox="0 0 141 141" fill="none" xmlns="http://www.w3.org/2000/svg">
<g filter="url(#filter0_d_209_2085)">
<circle cx="57.127" cy="66.5616" r="30" fill="white" fill-opacity="0.7" shape-rendering="crispEdges"/>
</g>
<g clip-path="url(#clip0_209_2085)">
<path d="M55.9503 46.7091C55.8644 46.7169 55.591 46.7442 55.3449 46.7637C49.6697 47.2754 44.3538 50.3376 40.9869 55.0442C39.1121 57.6611 37.913 60.6296 37.4599 63.7738C37.2998 64.8713 37.2803 65.1955 37.2803 66.6837C37.2803 68.1718 37.2998 68.496 37.4599 69.5935C38.5458 77.0967 43.8851 83.4008 51.1266 85.7365C52.4233 86.1544 53.7904 86.4395 55.3449 86.6114C55.9503 86.6778 58.5673 86.6778 59.1727 86.6114C61.856 86.3146 64.1292 85.6506 66.3712 84.5061C66.7149 84.3304 66.7813 84.2835 66.7344 84.2445C66.7032 84.221 65.2385 82.2564 63.4808 79.8816L60.2858 75.5656L56.2823 69.6404C54.0794 66.3829 52.2671 63.7191 52.2515 63.7191C52.2358 63.7152 52.2202 66.3478 52.2124 69.5623C52.2007 75.1907 52.1968 75.4172 52.1265 75.55C52.0249 75.7414 51.9468 75.8195 51.7828 75.9054C51.6578 75.9679 51.5484 75.9796 50.9586 75.9796H50.2829L50.1032 75.8664C49.9861 75.7922 49.9001 75.6945 49.8415 75.5812L49.7595 75.4055L49.7673 67.5742L49.7791 59.739L49.9001 59.5867C49.9626 59.5047 50.0954 59.3992 50.1892 59.3484C50.3493 59.2703 50.4118 59.2625 51.0875 59.2625C51.8843 59.2625 52.0171 59.2938 52.2241 59.5203C52.2827 59.5828 54.4505 62.8481 57.044 66.7813C59.6375 70.7145 63.184 76.0851 64.926 78.7216L68.0898 83.5141L68.2499 83.4086C69.6677 82.4868 71.1676 81.1744 72.355 79.8074C74.8821 76.9053 76.5108 73.3666 77.0576 69.5935C77.2178 68.496 77.2373 68.1718 77.2373 66.6837C77.2373 65.1955 77.2178 64.8713 77.0576 63.7738C75.9718 56.2706 70.6325 49.9666 63.391 47.6308C62.1138 47.2168 60.7545 46.9317 59.2313 46.7598C58.8563 46.7208 56.2745 46.6778 55.9503 46.7091ZM64.1292 58.7938C64.3167 58.8876 64.469 59.0672 64.5237 59.2547C64.555 59.3563 64.5628 61.5279 64.555 66.422L64.5432 73.4447L63.3051 71.5465L62.063 69.6482V64.5433C62.063 61.2428 62.0786 59.3875 62.1021 59.2977C62.1646 59.0789 62.3013 58.9071 62.4887 58.8055C62.6489 58.7235 62.7075 58.7157 63.3207 58.7157C63.8988 58.7157 64.0003 58.7235 64.1292 58.7938Z" fill="black"/>
<path d="M67.8945 83.6C67.7578 83.6859 67.7148 83.7445 67.8359 83.6781C67.9218 83.6273 68.0625 83.5219 68.039 83.5179C68.0273 83.5179 67.9609 83.557 67.8945 83.6ZM67.625 83.7757C67.5547 83.8304 67.5547 83.8343 67.6406 83.7914C67.6875 83.7679 67.7266 83.7406 67.7266 83.7328C67.7266 83.7015 67.707 83.7093 67.625 83.7757ZM67.4297 83.8929C67.3594 83.9476 67.3594 83.9515 67.4453 83.9085C67.4922 83.8851 67.5313 83.8578 67.5313 83.8499C67.5313 83.8187 67.5117 83.8265 67.4297 83.8929ZM67.2344 84.0101C67.1641 84.0648 67.1641 84.0687 67.25 84.0257C67.2969 84.0023 67.336 83.9749 67.336 83.9671C67.336 83.9359 67.3164 83.9437 67.2344 84.0101ZM66.9376 84.1663C66.7891 84.2444 66.797 84.2757 66.9454 84.2015C67.0118 84.1663 67.0626 84.1312 67.0626 84.1234C67.0626 84.096 67.0586 84.0999 66.9376 84.1663Z" fill="black"/>
</g>
<rect x="1.30273" y="90.5051" width="112" height="32" rx="5" fill="#78787F"/>
<path d="M39.3766 100.869V112.505H38.013L31.6721 103.369H31.5584L31.5584 112.505H30.1493L30.1493 100.869H31.513L37.8766 110.028H37.9902V100.869H39.3766ZM45.6735 112.687C44.8326 112.687 44.1072 112.501 43.4973 112.13C42.8913 111.755 42.4235 111.232 42.0939 110.562C41.7682 109.888 41.6053 109.104 41.6053 108.21C41.6053 107.316 41.7682 106.528 42.0939 105.846C42.4235 105.16 42.8818 104.626 43.4689 104.244C44.0598 103.857 44.7492 103.664 45.5371 103.664C45.9917 103.664 46.4405 103.74 46.8837 103.891C47.3269 104.043 47.7303 104.289 48.0939 104.63C48.4576 104.967 48.7473 105.414 48.9632 105.971C49.1792 106.528 49.2871 107.213 49.2871 108.028V108.596H42.5598V107.437H47.9235C47.9235 106.944 47.825 106.505 47.628 106.119C47.4348 105.732 47.1583 105.427 46.7985 105.204C46.4424 104.98 46.022 104.869 45.5371 104.869C45.003 104.869 44.5409 105.001 44.1507 105.266C43.7644 105.528 43.467 105.869 43.2587 106.289C43.0504 106.71 42.9462 107.16 42.9462 107.641V108.414C42.9462 109.073 43.0598 109.632 43.2871 110.09C43.5182 110.545 43.8382 110.891 44.2473 111.13C44.6564 111.365 45.1318 111.482 45.6735 111.482C46.0257 111.482 46.3439 111.433 46.628 111.335C46.9159 111.232 47.164 111.081 47.3723 110.88C47.5807 110.676 47.7417 110.422 47.8553 110.119L49.1507 110.482C49.0144 110.922 48.7852 111.308 48.4632 111.641C48.1413 111.971 47.7435 112.229 47.2701 112.414C46.7966 112.596 46.2644 112.687 45.6735 112.687ZM52.0925 103.778L54.1834 107.346L56.2743 103.778H57.8198L55.0016 108.141L57.8198 112.505H56.2743L54.1834 109.119L52.0925 112.505H50.5471L53.3198 108.141L50.5471 103.778H52.0925ZM63.5286 103.778V104.914L59.0059 104.914V103.778L63.5286 103.778ZM60.324 101.687L61.6649 101.687V110.005C61.6649 110.384 61.7199 110.668 61.8297 110.857C61.9434 111.043 62.0873 111.168 62.2615 111.232C62.4396 111.293 62.6271 111.323 62.824 111.323C62.9718 111.323 63.093 111.316 63.1877 111.301C63.2824 111.282 63.3581 111.266 63.4149 111.255L63.6877 112.46C63.5968 112.494 63.4699 112.528 63.307 112.562C63.1441 112.6 62.9377 112.619 62.6877 112.619C62.3089 112.619 61.9377 112.537 61.574 112.374C61.2142 112.212 60.9149 111.963 60.6763 111.63C60.4415 111.297 60.324 110.876 60.324 110.369V101.687ZM74.682 100.869H76.0911V109.187C76.0911 109.929 75.9547 110.56 75.682 111.079C75.4093 111.598 75.0248 111.992 74.5286 112.261C74.0324 112.53 73.4471 112.664 72.7729 112.664C72.1365 112.664 71.5703 112.549 71.074 112.318C70.5778 112.083 70.1877 111.749 69.9036 111.318C69.6195 110.886 69.4774 110.372 69.4774 109.778H70.8638C70.8638 110.107 70.9452 110.395 71.1081 110.641C71.2748 110.884 71.5021 111.073 71.7899 111.21C72.0778 111.346 72.4055 111.414 72.7729 111.414C73.1782 111.414 73.5229 111.329 73.807 111.158C74.0911 110.988 74.307 110.738 74.4547 110.408C74.6062 110.075 74.682 109.668 74.682 109.187V100.869ZM84.9149 105.732L83.7104 106.073C83.6346 105.872 83.5229 105.677 83.3752 105.488C83.2312 105.295 83.0343 105.136 82.7843 105.011C82.5343 104.886 82.2142 104.823 81.824 104.823C81.2899 104.823 80.8449 104.946 80.4888 105.193C80.1365 105.435 79.9604 105.744 79.9604 106.119C79.9604 106.452 80.0816 106.715 80.324 106.908C80.5665 107.102 80.9452 107.263 81.4604 107.391L82.7559 107.71C83.5362 107.899 84.1176 108.189 84.5002 108.579C84.8827 108.965 85.074 109.463 85.074 110.073C85.074 110.573 84.9301 111.02 84.6422 111.414C84.3581 111.808 83.9604 112.119 83.449 112.346C82.9377 112.573 82.343 112.687 81.6649 112.687C80.7748 112.687 80.0381 112.494 79.4547 112.107C78.8714 111.721 78.5021 111.157 78.3468 110.414L79.6195 110.096C79.7407 110.566 79.9699 110.918 80.307 111.153C80.6479 111.388 81.093 111.505 81.6422 111.505C82.2672 111.505 82.7634 111.372 83.1309 111.107C83.5021 110.838 83.6877 110.516 83.6877 110.141C83.6877 109.838 83.5816 109.585 83.3695 109.38C83.1574 109.172 82.8316 109.016 82.3922 108.914L80.9377 108.573C80.1384 108.384 79.5513 108.09 79.1763 107.693C78.8051 107.291 78.6195 106.789 78.6195 106.187C78.6195 105.694 78.7577 105.259 79.0343 104.88C79.3146 104.501 79.6952 104.204 80.1763 103.988C80.6612 103.772 81.2104 103.664 81.824 103.664C82.6877 103.664 83.3657 103.854 83.8581 104.232C84.3543 104.611 84.7066 105.111 84.9149 105.732Z" fill="white"/>
<defs>
<filter id="filter0_d_209_2085" x="0.126953" y="0.561646" width="140" height="140" filterUnits="userSpaceOnUse" color-interpolation-filters="sRGB">
<feFlood flood-opacity="0" result="BackgroundImageFix"/>
<feColorMatrix in="SourceAlpha" type="matrix" values="0 0 0 0 0 0 0 0 0 0 0 0 0 0 0 0 0 0 127 0" result="hardAlpha"/>
<feOffset dx="13" dy="4"/>
<feGaussianBlur stdDeviation="20"/>
<feComposite in2="hardAlpha" operator="out"/>
<feColorMatrix type="matrix" values="0 0 0 0 0.0431373 0 0 0 0 0.0784314 0 0 0 0 0.105882 0 0 0 0.1 0"/>
<feBlend mode="normal" in2="BackgroundImageFix" result="effect1_dropShadow_209_2085"/>
<feBlend mode="normal" in="SourceGraphic" in2="effect1_dropShadow_209_2085" result="shape"/>
</filter>
<clipPath id="clip0_209_2085">
<rect width="40" height="40" fill="white" transform="translate(37.2588 46.6778)"/>
</clipPath>
</defs>
</svg>
