<svg width="32" height="32" viewBox="0 0 32 32" fill="none" xmlns="http://www.w3.org/2000/svg">
<path d="M16.0003 2.66669C8.64033 2.66669 2.66699 8.64002 2.66699 16C2.66699 23.36 8.64033 29.3334 16.0003 29.3334C23.3603 29.3334 29.3337 23.36 29.3337 16C29.3337 8.64002 23.3603 2.66669 16.0003 2.66669Z" fill="#FFF9E6"/>
<path d="M15.4797 15.7866C15.4797 19.8933 14.5863 20.8133 12.1997 22.2266C12.0397 22.32 11.8663 22.36 11.693 22.36C11.3463 22.36 11.013 22.1866 10.8263 21.8666C10.5463 21.3866 10.7063 20.7733 11.173 20.4933C12.7863 19.5333 13.3463 19.1866 13.453 16.7733H10.9197C9.46634 16.7733 8.33301 15.64 8.33301 14.1866V12.2133C8.33301 10.76 9.46634 9.62665 10.9197 9.62665H12.9063C14.333 9.62665 15.493 10.7866 15.493 12.2133V15.7866H15.4797ZM23.6663 15.7866C23.6663 19.8933 22.773 20.8133 20.3863 22.2266C20.2263 22.32 20.053 22.36 19.8797 22.36C19.533 22.36 19.1997 22.1866 19.013 21.8666C18.733 21.3866 18.893 20.7733 19.3597 20.4933C20.973 19.5333 21.533 19.1866 21.6397 16.7733H19.093C17.6397 16.7733 16.5063 15.64 16.5063 14.1866V12.2133C16.5063 10.76 17.6397 9.62665 19.093 9.62665H21.0797C22.5063 9.62665 23.6663 10.7866 23.6663 12.2133V15.7866Z" fill="#FEC001"/>
</svg>
